REM MD5 19cfa8cf70853d8a6ab0ef2786ac0828
FILE "Dai-4-Ji Super Robot Taisen S (Japan).bin" BINARY
  TRACK 01 MODE2/2352
    INDEX 01 00:00:00
  TRACK 02 AUDIO
    INDEX 00 37:03:06
    INDEX 01 37:05:06
  TRACK 03 AUDIO
    INDEX 00 37:25:06
    INDEX 01 40:25:06
REM LEADOUT 43:23:31
